<svg xmlns="http://www.w3.org/2000/svg" width="25.378" height="25.378" viewBox="0 0 25.378 25.378">
  <path id="social-1_logo-instagram" d="M22.364,0H3.014A3.012,3.012,0,0,0,0,3.014V22.364a3.012,3.012,0,0,0,3.014,3.014H22.364a3.012,3.012,0,0,0,3.014-3.014V3.014A3.012,3.012,0,0,0,22.364,0ZM19.033,3.172h2.379a.749.749,0,0,1,.793.793V6.344a.749.749,0,0,1-.793.793H19.033a.749.749,0,0,1-.793-.793V3.965A.749.749,0,0,1,19.033,3.172ZM12.689,7.851a4.838,4.838,0,1,1-4.917,4.838A4.925,4.925,0,0,1,12.689,7.851ZM22.206,23H3.172a.749.749,0,0,1-.793-.793V10.31H5.551A5,5,0,0,0,5,12.689a7.693,7.693,0,0,0,15.385,0,3.609,3.609,0,0,0-.634-2.379h3.172v11.9A.656.656,0,0,1,22.206,23Z"/>
</svg>
