<svg xmlns="http://www.w3.org/2000/svg" width="25.457" height="20.62" viewBox="0 0 25.457 20.62">
  <path id="social-1_logo-twitter" d="M25.357,5.458a9.387,9.387,0,0,1-3.014.793,5.125,5.125,0,0,0,2.3-2.855,10,10,0,0,1-3.331,1.269A5.106,5.106,0,0,0,17.585,3a5.229,5.229,0,0,0-5.234,5.234,6.122,6.122,0,0,0,.159,1.19A14.95,14.95,0,0,1,1.724,3.952,4.992,4.992,0,0,0,1.01,6.569a5.365,5.365,0,0,0,2.3,4.362A4.845,4.845,0,0,1,.931,10.3v.079a5.189,5.189,0,0,0,4.2,5.076,7.814,7.814,0,0,1-1.348.159,3.861,3.861,0,0,1-.952-.079,5.3,5.3,0,0,0,4.838,3.648,10.244,10.244,0,0,1-6.5,2.221A6.822,6.822,0,0,1-.1,21.32a15.743,15.743,0,0,0,8.089,2.3,14.716,14.716,0,0,0,14.83-14.83V8.155A13.652,13.652,0,0,0,25.357,5.458Z" transform="translate(0.1 -3)"/>
</svg>
